<mxfile host="app.diagrams.net" modified="2022-07-18T16:50:22.835Z" agent="5.0 (Macintosh; Intel Mac OS X 10_15_7) AppleWebKit/537.36 (KHTML, like Gecko) Chrome/101.0.4951.54 Safari/537.36" etag="mbySUVd3x7qLc7UW4Y_B" version="20.1.1" type="github">
  <diagram id="dWIMopEku_IqMhKQJseA" name="Page-1">
    <mxGraphModel dx="946" dy="618" grid="1" gridSize="10" guides="1" tooltips="1" connect="1" arrows="1" fold="1" page="1" pageScale="1" pageWidth="1169" pageHeight="827" background="#FFFFFF" math="0" shadow="1">
      <root>
        <mxCell id="0" />
        <mxCell id="1" parent="0" />
        <mxCell id="IMyASxeMy9cEB1uERxvy-8" value="UserDict" style="swimlane;fontStyle=1;align=center;verticalAlign=top;childLayout=stackLayout;horizontal=1;startSize=26;horizontalStack=0;resizeParent=1;resizeParentMax=0;resizeLast=0;collapsible=1;marginBottom=0;fillColor=#A8DADC;strokeColor=#457B9D;fontColor=#1D3557;rounded=1;" vertex="1" parent="1">
          <mxGeometry x="505" y="40" width="160" height="60" as="geometry" />
        </mxCell>
        <mxCell id="IMyASxeMy9cEB1uERxvy-10" value="" style="line;strokeWidth=1;fillColor=#A8DADC;align=left;verticalAlign=middle;spacingTop=-1;spacingLeft=3;spacingRight=3;rotatable=0;labelPosition=right;points=[];portConstraint=eastwest;strokeColor=#457B9D;labelBackgroundColor=#F1FAEE;fontColor=#1D3557;rounded=1;" vertex="1" parent="IMyASxeMy9cEB1uERxvy-8">
          <mxGeometry y="26" width="160" height="8" as="geometry" />
        </mxCell>
        <mxCell id="IMyASxeMy9cEB1uERxvy-9" value="" style="text;strokeColor=#457B9D;fillColor=#A8DADC;align=left;verticalAlign=top;spacingLeft=4;spacingRight=4;overflow=hidden;rotatable=0;points=[[0,0.5],[1,0.5]];portConstraint=eastwest;fontColor=#1D3557;rounded=1;" vertex="1" parent="IMyASxeMy9cEB1uERxvy-8">
          <mxGeometry y="34" width="160" height="26" as="geometry" />
        </mxCell>
        <mxCell id="IMyASxeMy9cEB1uERxvy-17" style="edgeStyle=orthogonalEdgeStyle;rounded=1;orthogonalLoop=1;jettySize=auto;html=1;entryX=0.5;entryY=1;entryDx=0;entryDy=0;strokeColor=#457B9D;endArrow=block;endFill=0;labelBackgroundColor=#F1FAEE;fontColor=#1D3557;curved=1;" edge="1" parent="1" source="IMyASxeMy9cEB1uERxvy-12" target="IMyASxeMy9cEB1uERxvy-8">
          <mxGeometry relative="1" as="geometry" />
        </mxCell>
        <mxCell id="IMyASxeMy9cEB1uERxvy-12" value="Somebook" style="swimlane;fontStyle=1;align=center;verticalAlign=top;childLayout=stackLayout;horizontal=1;startSize=26;horizontalStack=0;resizeParent=1;resizeParentMax=0;resizeLast=0;collapsible=1;marginBottom=0;fillColor=#A8DADC;strokeColor=#457B9D;fontColor=#1D3557;rounded=1;" vertex="1" parent="1">
          <mxGeometry x="505" y="130" width="160" height="190" as="geometry" />
        </mxCell>
        <mxCell id="IMyASxeMy9cEB1uERxvy-14" value="" style="line;strokeWidth=1;fillColor=none;align=left;verticalAlign=middle;spacingTop=-1;spacingLeft=3;spacingRight=3;rotatable=0;labelPosition=right;points=[];portConstraint=eastwest;labelBackgroundColor=#F1FAEE;strokeColor=#457B9D;fontColor=#1D3557;rounded=1;" vertex="1" parent="IMyASxeMy9cEB1uERxvy-12">
          <mxGeometry y="26" width="160" height="8" as="geometry" />
        </mxCell>
        <mxCell id="IMyASxeMy9cEB1uERxvy-121" value="save_data()&#xa;" style="text;strokeColor=none;fillColor=none;align=left;verticalAlign=top;spacingLeft=4;spacingRight=4;overflow=hidden;rotatable=0;points=[[0,0.5],[1,0.5]];portConstraint=eastwest;fontColor=#1D3557;rounded=1;" vertex="1" parent="IMyASxeMy9cEB1uERxvy-12">
          <mxGeometry y="34" width="160" height="26" as="geometry" />
        </mxCell>
        <mxCell id="IMyASxeMy9cEB1uERxvy-15" value="load_data()&#xa;" style="text;strokeColor=none;fillColor=none;align=left;verticalAlign=top;spacingLeft=4;spacingRight=4;overflow=hidden;rotatable=0;points=[[0,0.5],[1,0.5]];portConstraint=eastwest;fontColor=#1D3557;rounded=1;" vertex="1" parent="IMyASxeMy9cEB1uERxvy-12">
          <mxGeometry y="60" width="160" height="26" as="geometry" />
        </mxCell>
        <mxCell id="IMyASxeMy9cEB1uERxvy-122" value="add_record()&#xa;" style="text;strokeColor=none;fillColor=none;align=left;verticalAlign=top;spacingLeft=4;spacingRight=4;overflow=hidden;rotatable=0;points=[[0,0.5],[1,0.5]];portConstraint=eastwest;fontColor=#1D3557;rounded=1;" vertex="1" parent="IMyASxeMy9cEB1uERxvy-12">
          <mxGeometry y="86" width="160" height="26" as="geometry" />
        </mxCell>
        <mxCell id="IMyASxeMy9cEB1uERxvy-123" value="delete_record()" style="text;strokeColor=none;fillColor=none;align=left;verticalAlign=top;spacingLeft=4;spacingRight=4;overflow=hidden;rotatable=0;points=[[0,0.5],[1,0.5]];portConstraint=eastwest;fontColor=#1D3557;rounded=1;" vertex="1" parent="IMyASxeMy9cEB1uERxvy-12">
          <mxGeometry y="112" width="160" height="26" as="geometry" />
        </mxCell>
        <mxCell id="IMyASxeMy9cEB1uERxvy-124" value="update_record()" style="text;strokeColor=none;fillColor=none;align=left;verticalAlign=top;spacingLeft=4;spacingRight=4;overflow=hidden;rotatable=0;points=[[0,0.5],[1,0.5]];portConstraint=eastwest;fontColor=#1D3557;rounded=1;" vertex="1" parent="IMyASxeMy9cEB1uERxvy-12">
          <mxGeometry y="138" width="160" height="26" as="geometry" />
        </mxCell>
        <mxCell id="IMyASxeMy9cEB1uERxvy-13" value="find_record()" style="text;strokeColor=none;fillColor=none;align=left;verticalAlign=top;spacingLeft=4;spacingRight=4;overflow=hidden;rotatable=0;points=[[0,0.5],[1,0.5]];portConstraint=eastwest;fontColor=#1D3557;rounded=1;" vertex="1" parent="IMyASxeMy9cEB1uERxvy-12">
          <mxGeometry y="164" width="160" height="26" as="geometry" />
        </mxCell>
        <mxCell id="IMyASxeMy9cEB1uERxvy-115" style="edgeStyle=orthogonalEdgeStyle;curved=1;orthogonalLoop=1;jettySize=auto;html=1;entryX=-0.012;entryY=0.115;entryDx=0;entryDy=0;fontColor=#1D3557;startArrow=diamond;startFill=1;endArrow=block;endFill=1;strokeColor=#B20000;fillColor=#e51400;entryPerimeter=0;" edge="1" parent="1" source="IMyASxeMy9cEB1uERxvy-18" target="IMyASxeMy9cEB1uERxvy-13">
          <mxGeometry relative="1" as="geometry" />
        </mxCell>
        <mxCell id="IMyASxeMy9cEB1uERxvy-18" value="Record" style="swimlane;fontStyle=1;align=center;verticalAlign=top;childLayout=stackLayout;horizontal=1;startSize=26;horizontalStack=0;resizeParent=1;resizeParentMax=0;resizeLast=0;collapsible=1;marginBottom=0;fillColor=#A8DADC;strokeColor=#457B9D;fontColor=#1D3557;rounded=1;" vertex="1" parent="1">
          <mxGeometry x="360" y="354" width="160" height="86" as="geometry" />
        </mxCell>
        <mxCell id="IMyASxeMy9cEB1uERxvy-19" value="add_address()" style="text;strokeColor=none;fillColor=none;align=left;verticalAlign=top;spacingLeft=4;spacingRight=4;overflow=hidden;rotatable=0;points=[[0,0.5],[1,0.5]];portConstraint=eastwest;fontColor=#1D3557;rounded=1;" vertex="1" parent="IMyASxeMy9cEB1uERxvy-18">
          <mxGeometry y="26" width="160" height="26" as="geometry" />
        </mxCell>
        <mxCell id="IMyASxeMy9cEB1uERxvy-20" value="" style="line;strokeWidth=1;fillColor=none;align=left;verticalAlign=middle;spacingTop=-1;spacingLeft=3;spacingRight=3;rotatable=0;labelPosition=right;points=[];portConstraint=eastwest;labelBackgroundColor=#F1FAEE;strokeColor=#457B9D;fontColor=#1D3557;rounded=1;" vertex="1" parent="IMyASxeMy9cEB1uERxvy-18">
          <mxGeometry y="52" width="160" height="8" as="geometry" />
        </mxCell>
        <mxCell id="IMyASxeMy9cEB1uERxvy-21" value="add_birthday()" style="text;strokeColor=none;fillColor=none;align=left;verticalAlign=top;spacingLeft=4;spacingRight=4;overflow=hidden;rotatable=0;points=[[0,0.5],[1,0.5]];portConstraint=eastwest;fontColor=#1D3557;rounded=1;" vertex="1" parent="IMyASxeMy9cEB1uERxvy-18">
          <mxGeometry y="60" width="160" height="26" as="geometry" />
        </mxCell>
        <mxCell id="IMyASxeMy9cEB1uERxvy-118" style="edgeStyle=orthogonalEdgeStyle;curved=1;orthogonalLoop=1;jettySize=auto;html=1;entryX=1.013;entryY=0.154;entryDx=0;entryDy=0;entryPerimeter=0;fontColor=#1D3557;startArrow=diamond;startFill=1;endArrow=block;endFill=1;strokeColor=#B20000;fillColor=#e51400;" edge="1" parent="1" source="IMyASxeMy9cEB1uERxvy-22" target="IMyASxeMy9cEB1uERxvy-13">
          <mxGeometry relative="1" as="geometry" />
        </mxCell>
        <mxCell id="IMyASxeMy9cEB1uERxvy-22" value="NoteBookRecord" style="swimlane;fontStyle=1;align=center;verticalAlign=top;childLayout=stackLayout;horizontal=1;startSize=26;horizontalStack=0;resizeParent=1;resizeParentMax=0;resizeLast=0;collapsible=1;marginBottom=0;fillColor=#A8DADC;strokeColor=#457B9D;fontColor=#1D3557;rounded=1;" vertex="1" parent="1">
          <mxGeometry x="650" y="350" width="160" height="86" as="geometry" />
        </mxCell>
        <mxCell id="IMyASxeMy9cEB1uERxvy-23" value="add_tag()" style="text;strokeColor=none;fillColor=none;align=left;verticalAlign=top;spacingLeft=4;spacingRight=4;overflow=hidden;rotatable=0;points=[[0,0.5],[1,0.5]];portConstraint=eastwest;fontColor=#1D3557;rounded=1;" vertex="1" parent="IMyASxeMy9cEB1uERxvy-22">
          <mxGeometry y="26" width="160" height="26" as="geometry" />
        </mxCell>
        <mxCell id="IMyASxeMy9cEB1uERxvy-24" value="" style="line;strokeWidth=1;fillColor=none;align=left;verticalAlign=middle;spacingTop=-1;spacingLeft=3;spacingRight=3;rotatable=0;labelPosition=right;points=[];portConstraint=eastwest;labelBackgroundColor=#F1FAEE;strokeColor=#457B9D;fontColor=#1D3557;rounded=1;" vertex="1" parent="IMyASxeMy9cEB1uERxvy-22">
          <mxGeometry y="52" width="160" height="8" as="geometry" />
        </mxCell>
        <mxCell id="IMyASxeMy9cEB1uERxvy-25" value="delete_tag()" style="text;strokeColor=none;fillColor=none;align=left;verticalAlign=top;spacingLeft=4;spacingRight=4;overflow=hidden;rotatable=0;points=[[0,0.5],[1,0.5]];portConstraint=eastwest;fontColor=#1D3557;rounded=1;" vertex="1" parent="IMyASxeMy9cEB1uERxvy-22">
          <mxGeometry y="60" width="160" height="26" as="geometry" />
        </mxCell>
        <mxCell id="IMyASxeMy9cEB1uERxvy-112" style="edgeStyle=orthogonalEdgeStyle;orthogonalLoop=1;jettySize=auto;html=1;entryX=0.581;entryY=1;entryDx=0;entryDy=0;entryPerimeter=0;fontColor=#1D3557;strokeColor=#B20000;fillColor=#e51400;endArrow=block;endFill=1;startArrow=diamond;startFill=1;curved=1;" edge="1" parent="1" source="IMyASxeMy9cEB1uERxvy-26" target="IMyASxeMy9cEB1uERxvy-21">
          <mxGeometry relative="1" as="geometry" />
        </mxCell>
        <mxCell id="IMyASxeMy9cEB1uERxvy-113" style="edgeStyle=orthogonalEdgeStyle;curved=1;orthogonalLoop=1;jettySize=auto;html=1;entryX=0.25;entryY=1;entryDx=0;entryDy=0;entryPerimeter=0;fontColor=#1D3557;startArrow=diamond;startFill=1;endArrow=block;endFill=1;strokeColor=#B20000;fillColor=#e51400;" edge="1" parent="1" source="IMyASxeMy9cEB1uERxvy-26" target="IMyASxeMy9cEB1uERxvy-25">
          <mxGeometry relative="1" as="geometry" />
        </mxCell>
        <mxCell id="IMyASxeMy9cEB1uERxvy-26" value="Class Field" style="swimlane;fontStyle=1;align=center;verticalAlign=top;childLayout=stackLayout;horizontal=1;startSize=26;horizontalStack=0;resizeParent=1;resizeParentMax=0;resizeLast=0;collapsible=1;marginBottom=0;labelBackgroundColor=none;fillColor=#A8DADC;strokeColor=#457B9D;fontColor=#1D3557;rounded=1;labelBorderColor=none;" vertex="1" parent="1">
          <mxGeometry x="490" y="650" width="160" height="60" as="geometry" />
        </mxCell>
        <mxCell id="IMyASxeMy9cEB1uERxvy-28" value="" style="line;strokeWidth=1;fillColor=none;align=left;verticalAlign=middle;spacingTop=-1;spacingLeft=3;spacingRight=3;rotatable=0;labelPosition=right;points=[];portConstraint=eastwest;labelBackgroundColor=#F1FAEE;strokeColor=#457B9D;fontColor=#1D3557;rounded=1;" vertex="1" parent="IMyASxeMy9cEB1uERxvy-26">
          <mxGeometry y="26" width="160" height="8" as="geometry" />
        </mxCell>
        <mxCell id="IMyASxeMy9cEB1uERxvy-126" value="" style="text;strokeColor=#457B9D;fillColor=#A8DADC;align=left;verticalAlign=top;spacingLeft=4;spacingRight=4;overflow=hidden;rotatable=0;points=[[0,0.5],[1,0.5]];portConstraint=eastwest;fontColor=#1D3557;rounded=1;" vertex="1" parent="IMyASxeMy9cEB1uERxvy-26">
          <mxGeometry y="34" width="160" height="26" as="geometry" />
        </mxCell>
        <mxCell id="IMyASxeMy9cEB1uERxvy-98" style="edgeStyle=orthogonalEdgeStyle;rounded=1;orthogonalLoop=1;jettySize=auto;html=1;entryX=1.015;entryY=-0.128;entryDx=0;entryDy=0;entryPerimeter=0;endArrow=block;endFill=0;strokeColor=#457B9D;labelBackgroundColor=#F1FAEE;fontColor=#1D3557;curved=1;" edge="1" parent="1" source="IMyASxeMy9cEB1uERxvy-30">
          <mxGeometry relative="1" as="geometry">
            <mxPoint x="652.4000000000001" y="672.672" as="targetPoint" />
            <Array as="points">
              <mxPoint x="880" y="673" />
            </Array>
          </mxGeometry>
        </mxCell>
        <mxCell id="IMyASxeMy9cEB1uERxvy-30" value="NoteBookTag" style="swimlane;fontStyle=1;align=center;verticalAlign=top;childLayout=stackLayout;horizontal=1;startSize=26;horizontalStack=0;resizeParent=1;resizeParentMax=0;resizeLast=0;collapsible=1;marginBottom=0;fillColor=#A8DADC;strokeColor=#457B9D;fontColor=#1D3557;rounded=1;" vertex="1" parent="1">
          <mxGeometry x="800" y="550" width="160" height="34" as="geometry" />
        </mxCell>
        <mxCell id="IMyASxeMy9cEB1uERxvy-32" value="" style="line;strokeWidth=1;fillColor=none;align=left;verticalAlign=middle;spacingTop=-1;spacingLeft=3;spacingRight=3;rotatable=0;labelPosition=right;points=[];portConstraint=eastwest;labelBackgroundColor=#F1FAEE;strokeColor=#457B9D;fontColor=#1D3557;rounded=1;" vertex="1" parent="IMyASxeMy9cEB1uERxvy-30">
          <mxGeometry y="26" width="160" height="8" as="geometry" />
        </mxCell>
        <mxCell id="IMyASxeMy9cEB1uERxvy-49" value="Name" style="swimlane;fontStyle=1;align=center;verticalAlign=top;childLayout=stackLayout;horizontal=1;startSize=26;horizontalStack=0;resizeParent=1;resizeParentMax=0;resizeLast=0;collapsible=1;marginBottom=0;fillColor=#A8DADC;strokeColor=#457B9D;fontColor=#1D3557;rounded=1;" vertex="1" parent="1">
          <mxGeometry x="200" y="500" width="160" height="60" as="geometry" />
        </mxCell>
        <mxCell id="IMyASxeMy9cEB1uERxvy-50" value="+ field: name" style="text;strokeColor=none;fillColor=none;align=left;verticalAlign=top;spacingLeft=4;spacingRight=4;overflow=hidden;rotatable=0;points=[[0,0.5],[1,0.5]];portConstraint=eastwest;fontColor=#1D3557;rounded=1;" vertex="1" parent="IMyASxeMy9cEB1uERxvy-49">
          <mxGeometry y="26" width="160" height="26" as="geometry" />
        </mxCell>
        <mxCell id="IMyASxeMy9cEB1uERxvy-51" value="" style="line;strokeWidth=1;fillColor=none;align=left;verticalAlign=middle;spacingTop=-1;spacingLeft=3;spacingRight=3;rotatable=0;labelPosition=right;points=[];portConstraint=eastwest;labelBackgroundColor=#F1FAEE;strokeColor=#457B9D;fontColor=#1D3557;rounded=1;" vertex="1" parent="IMyASxeMy9cEB1uERxvy-49">
          <mxGeometry y="52" width="160" height="8" as="geometry" />
        </mxCell>
        <mxCell id="IMyASxeMy9cEB1uERxvy-76" style="edgeStyle=orthogonalEdgeStyle;rounded=1;orthogonalLoop=1;jettySize=auto;html=1;endArrow=block;endFill=0;strokeColor=#457B9D;labelBackgroundColor=#F1FAEE;fontColor=#1D3557;curved=1;" edge="1" parent="1" source="IMyASxeMy9cEB1uERxvy-36" target="IMyASxeMy9cEB1uERxvy-26">
          <mxGeometry relative="1" as="geometry">
            <Array as="points">
              <mxPoint x="880" y="693" />
            </Array>
          </mxGeometry>
        </mxCell>
        <mxCell id="IMyASxeMy9cEB1uERxvy-36" value="NoteBookText" style="swimlane;fontStyle=1;align=center;verticalAlign=top;childLayout=stackLayout;horizontal=1;startSize=26;horizontalStack=0;resizeParent=1;resizeParentMax=0;resizeLast=0;collapsible=1;marginBottom=0;fillColor=#A8DADC;strokeColor=#457B9D;fontColor=#1D3557;rounded=1;" vertex="1" parent="1">
          <mxGeometry x="800" y="733" width="160" height="34" as="geometry" />
        </mxCell>
        <mxCell id="IMyASxeMy9cEB1uERxvy-38" value="" style="line;strokeWidth=1;fillColor=none;align=left;verticalAlign=middle;spacingTop=-1;spacingLeft=3;spacingRight=3;rotatable=0;labelPosition=right;points=[];portConstraint=eastwest;labelBackgroundColor=#F1FAEE;strokeColor=#457B9D;fontColor=#1D3557;rounded=1;" vertex="1" parent="IMyASxeMy9cEB1uERxvy-36">
          <mxGeometry y="26" width="160" height="8" as="geometry" />
        </mxCell>
        <mxCell id="IMyASxeMy9cEB1uERxvy-61" value="Class Phone" style="swimlane;fontStyle=1;align=center;verticalAlign=top;childLayout=stackLayout;horizontal=1;startSize=26;horizontalStack=0;resizeParent=1;resizeParentMax=0;resizeLast=0;collapsible=1;marginBottom=0;fillColor=#A8DADC;strokeColor=#457B9D;fontColor=#1D3557;rounded=1;" vertex="1" parent="1">
          <mxGeometry x="200" y="620" width="160" height="60" as="geometry" />
        </mxCell>
        <mxCell id="IMyASxeMy9cEB1uERxvy-62" value="+ field: phone" style="text;strokeColor=none;fillColor=none;align=left;verticalAlign=top;spacingLeft=4;spacingRight=4;overflow=hidden;rotatable=0;points=[[0,0.5],[1,0.5]];portConstraint=eastwest;fontColor=#1D3557;rounded=1;" vertex="1" parent="IMyASxeMy9cEB1uERxvy-61">
          <mxGeometry y="26" width="160" height="26" as="geometry" />
        </mxCell>
        <mxCell id="IMyASxeMy9cEB1uERxvy-63" value="" style="line;strokeWidth=1;fillColor=none;align=left;verticalAlign=middle;spacingTop=-1;spacingLeft=3;spacingRight=3;rotatable=0;labelPosition=right;points=[];portConstraint=eastwest;labelBackgroundColor=#F1FAEE;strokeColor=#457B9D;fontColor=#1D3557;rounded=1;" vertex="1" parent="IMyASxeMy9cEB1uERxvy-61">
          <mxGeometry y="52" width="160" height="8" as="geometry" />
        </mxCell>
        <mxCell id="IMyASxeMy9cEB1uERxvy-133" style="edgeStyle=orthogonalEdgeStyle;curved=1;orthogonalLoop=1;jettySize=auto;html=1;entryX=0.25;entryY=1;entryDx=0;entryDy=0;fontColor=#1D3557;startArrow=none;startFill=0;endArrow=block;endFill=0;strokeColor=#457B9D;fillColor=#A8DADC;" edge="1" parent="1" source="IMyASxeMy9cEB1uERxvy-42" target="IMyASxeMy9cEB1uERxvy-26">
          <mxGeometry relative="1" as="geometry" />
        </mxCell>
        <mxCell id="IMyASxeMy9cEB1uERxvy-42" value="Class  Address" style="swimlane;fontStyle=1;align=center;verticalAlign=top;childLayout=stackLayout;horizontal=1;startSize=26;horizontalStack=0;resizeParent=1;resizeParentMax=0;resizeLast=0;collapsible=1;marginBottom=0;fillColor=#A8DADC;strokeColor=#457B9D;fontColor=#1D3557;rounded=1;" vertex="1" parent="1">
          <mxGeometry x="380" y="870" width="160" height="60" as="geometry" />
        </mxCell>
        <mxCell id="IMyASxeMy9cEB1uERxvy-43" value="+ field: address" style="text;strokeColor=none;fillColor=none;align=left;verticalAlign=top;spacingLeft=4;spacingRight=4;overflow=hidden;rotatable=0;points=[[0,0.5],[1,0.5]];portConstraint=eastwest;fontColor=#1D3557;rounded=1;" vertex="1" parent="IMyASxeMy9cEB1uERxvy-42">
          <mxGeometry y="26" width="160" height="26" as="geometry" />
        </mxCell>
        <mxCell id="IMyASxeMy9cEB1uERxvy-44" value="" style="line;strokeWidth=1;fillColor=none;align=left;verticalAlign=middle;spacingTop=-1;spacingLeft=3;spacingRight=3;rotatable=0;labelPosition=right;points=[];portConstraint=eastwest;labelBackgroundColor=#F1FAEE;strokeColor=#457B9D;fontColor=#1D3557;rounded=1;" vertex="1" parent="IMyASxeMy9cEB1uERxvy-42">
          <mxGeometry y="52" width="160" height="8" as="geometry" />
        </mxCell>
        <mxCell id="IMyASxeMy9cEB1uERxvy-134" style="edgeStyle=orthogonalEdgeStyle;curved=1;orthogonalLoop=1;jettySize=auto;html=1;entryX=0.581;entryY=0.962;entryDx=0;entryDy=0;entryPerimeter=0;fontColor=#1D3557;startArrow=none;startFill=0;endArrow=block;endFill=0;strokeColor=#457B9D;fillColor=#A8DADC;" edge="1" parent="1" source="IMyASxeMy9cEB1uERxvy-53" target="IMyASxeMy9cEB1uERxvy-126">
          <mxGeometry relative="1" as="geometry" />
        </mxCell>
        <mxCell id="IMyASxeMy9cEB1uERxvy-53" value="Class Email" style="swimlane;fontStyle=1;align=center;verticalAlign=top;childLayout=stackLayout;horizontal=1;startSize=26;horizontalStack=0;resizeParent=1;resizeParentMax=0;resizeLast=0;collapsible=1;marginBottom=0;fillColor=#A8DADC;strokeColor=#457B9D;fontColor=#1D3557;rounded=1;" vertex="1" parent="1">
          <mxGeometry x="600" y="870" width="160" height="60" as="geometry" />
        </mxCell>
        <mxCell id="IMyASxeMy9cEB1uERxvy-54" value="+ field: email" style="text;strokeColor=none;fillColor=none;align=left;verticalAlign=top;spacingLeft=4;spacingRight=4;overflow=hidden;rotatable=0;points=[[0,0.5],[1,0.5]];portConstraint=eastwest;fontColor=#1D3557;rounded=1;" vertex="1" parent="IMyASxeMy9cEB1uERxvy-53">
          <mxGeometry y="26" width="160" height="26" as="geometry" />
        </mxCell>
        <mxCell id="IMyASxeMy9cEB1uERxvy-55" value="" style="line;strokeWidth=1;fillColor=none;align=left;verticalAlign=middle;spacingTop=-1;spacingLeft=3;spacingRight=3;rotatable=0;labelPosition=right;points=[];portConstraint=eastwest;labelBackgroundColor=#F1FAEE;strokeColor=#457B9D;fontColor=#1D3557;rounded=1;" vertex="1" parent="IMyASxeMy9cEB1uERxvy-53">
          <mxGeometry y="52" width="160" height="8" as="geometry" />
        </mxCell>
        <mxCell id="IMyASxeMy9cEB1uERxvy-57" value="Class Birthday" style="swimlane;fontStyle=1;align=center;verticalAlign=top;childLayout=stackLayout;horizontal=1;startSize=26;horizontalStack=0;resizeParent=1;resizeParentMax=0;resizeLast=0;collapsible=1;marginBottom=0;fillColor=#A8DADC;strokeColor=#457B9D;fontColor=#1D3557;rounded=1;" vertex="1" parent="1">
          <mxGeometry x="200" y="746" width="160" height="60" as="geometry" />
        </mxCell>
        <mxCell id="IMyASxeMy9cEB1uERxvy-58" value="+ field: birthday" style="text;strokeColor=none;fillColor=none;align=left;verticalAlign=top;spacingLeft=4;spacingRight=4;overflow=hidden;rotatable=0;points=[[0,0.5],[1,0.5]];portConstraint=eastwest;fontColor=#1D3557;rounded=1;" vertex="1" parent="IMyASxeMy9cEB1uERxvy-57">
          <mxGeometry y="26" width="160" height="26" as="geometry" />
        </mxCell>
        <mxCell id="IMyASxeMy9cEB1uERxvy-59" value="" style="line;strokeWidth=1;fillColor=none;align=left;verticalAlign=middle;spacingTop=-1;spacingLeft=3;spacingRight=3;rotatable=0;labelPosition=right;points=[];portConstraint=eastwest;labelBackgroundColor=#F1FAEE;strokeColor=#457B9D;fontColor=#1D3557;rounded=1;" vertex="1" parent="IMyASxeMy9cEB1uERxvy-57">
          <mxGeometry y="52" width="160" height="8" as="geometry" />
        </mxCell>
        <mxCell id="IMyASxeMy9cEB1uERxvy-128" style="edgeStyle=orthogonalEdgeStyle;curved=1;orthogonalLoop=1;jettySize=auto;html=1;entryX=0;entryY=0.25;entryDx=0;entryDy=0;fontColor=#1D3557;startArrow=none;startFill=0;endArrow=block;endFill=0;strokeColor=#457B9D;fillColor=#A8DADC;" edge="1" parent="1" source="IMyASxeMy9cEB1uERxvy-50" target="IMyASxeMy9cEB1uERxvy-26">
          <mxGeometry relative="1" as="geometry" />
        </mxCell>
        <mxCell id="IMyASxeMy9cEB1uERxvy-130" style="edgeStyle=orthogonalEdgeStyle;curved=1;orthogonalLoop=1;jettySize=auto;html=1;entryX=-0.012;entryY=0.115;entryDx=0;entryDy=0;entryPerimeter=0;fontColor=#1D3557;startArrow=none;startFill=0;endArrow=block;endFill=0;strokeColor=#457B9D;fillColor=#A8DADC;" edge="1" parent="1" source="IMyASxeMy9cEB1uERxvy-62" target="IMyASxeMy9cEB1uERxvy-126">
          <mxGeometry relative="1" as="geometry" />
        </mxCell>
        <mxCell id="IMyASxeMy9cEB1uERxvy-132" style="edgeStyle=orthogonalEdgeStyle;curved=1;orthogonalLoop=1;jettySize=auto;html=1;entryX=0;entryY=0.75;entryDx=0;entryDy=0;fontColor=#1D3557;startArrow=none;startFill=0;endArrow=block;endFill=0;strokeColor=#457B9D;fillColor=#A8DADC;" edge="1" parent="1" source="IMyASxeMy9cEB1uERxvy-58" target="IMyASxeMy9cEB1uERxvy-26">
          <mxGeometry relative="1" as="geometry" />
        </mxCell>
      </root>
    </mxGraphModel>
  </diagram>
</mxfile>
